<svg data-v-423bf9ae="" xmlns="http://www.w3.org/2000/svg" viewBox="0 0 350.36173679927003 60" class="font"><!----><!----><!----><g data-v-423bf9ae="" id="ce217e76-3092-4b7c-8921-0c1f9b1cd840" fill="white" transform="matrix(6.38297898243758,0,0,6.38297898243758,-4.404254683438751,-23.042554501982146)"><path d="M3.71 13.01L3.71 13.01Q2.24 13.01 1.46 12.50L1.46 12.50L1.46 12.50Q0.69 11.98 0.69 10.99L0.69 10.99L0.69 10.99Q0.69 10.49 1.03 10.16L1.03 10.16L1.03 10.16Q1.37 9.83 1.92 9.83L1.92 9.83L1.92 9.83Q2.24 9.84 2.41 9.99L2.41 9.99L2.41 9.99Q2.58 10.14 2.58 10.26L2.58 10.26L2.58 10.26Q2.58 10.28 2.44 10.36L2.44 10.36L2.44 10.36Q2.30 10.44 2.18 10.61L2.18 10.61L2.18 10.61Q2.07 10.78 2.07 11.07L2.07 11.07L2.07 11.07Q2.07 11.73 2.47 12.09L2.47 12.09L2.47 12.09Q2.87 12.45 3.71 12.45L3.71 12.45L3.71 12.45Q4.28 12.45 4.72 12.22L4.72 12.22L4.72 12.22Q5.15 12.00 5.38 11.63L5.38 11.63L5.38 11.63Q5.61 11.26 5.61 10.85L5.61 10.85L5.61 10.85Q5.61 10.35 5.33 9.98L5.33 9.98L5.33 9.98Q5.04 9.62 4.62 9.37L4.62 9.37L4.62 9.37Q4.20 9.13 3.47 8.81L3.47 8.81L3.47 8.81Q2.63 8.43 2.11 8.12L2.11 8.12L2.11 8.12Q1.60 7.81 1.23 7.30L1.23 7.30L1.23 7.30Q0.87 6.79 0.87 6.03L0.87 6.03L0.87 6.03Q0.87 4.82 1.70 4.21L1.70 4.21L1.70 4.21Q2.53 3.61 3.89 3.61L3.89 3.61L3.89 3.61Q4.96 3.61 5.75 4.06L5.75 4.06L5.75 4.06Q6.54 4.51 6.54 5.38L6.54 5.38L6.54 5.38Q6.54 5.88 6.20 6.21L6.20 6.21L6.20 6.21Q5.85 6.54 5.31 6.54L5.31 6.54L5.31 6.54Q4.98 6.52 4.82 6.38L4.82 6.38L4.82 6.38Q4.65 6.23 4.65 6.10L4.65 6.10L4.65 6.10Q4.65 6.09 4.84 6.01L4.84 6.01L4.84 6.01Q5.03 5.92 5.17 5.75L5.17 5.75L5.17 5.75Q5.32 5.59 5.32 5.29L5.32 5.29L5.32 5.29Q5.32 4.77 4.92 4.48L4.92 4.48L4.92 4.48Q4.52 4.19 3.91 4.19L3.91 4.19L3.91 4.19Q3.05 4.19 2.61 4.59L2.61 4.59L2.61 4.59Q2.17 4.98 2.17 5.57L2.17 5.57L2.17 5.57Q2.17 6.06 2.44 6.39L2.44 6.39L2.44 6.39Q2.70 6.72 3.29 7.04L3.29 7.04L3.29 7.04Q3.77 7.29 4.33 7.55L4.33 7.55L4.33 7.55Q5.22 7.95 5.75 8.29L5.75 8.29L5.75 8.29Q6.27 8.62 6.63 9.17L6.63 9.17L6.63 9.17Q6.99 9.72 6.99 10.53L6.99 10.53L6.99 10.53Q6.99 11.23 6.54 11.80L6.54 11.80L6.54 11.80Q6.10 12.36 5.36 12.68L5.36 12.68L5.36 12.68Q4.61 13.01 3.71 13.01L3.71 13.01ZM8.48 12.77L8.48 12.77Q8.36 12.77 8.29 12.68L8.29 12.68L8.29 12.68Q8.23 12.59 8.23 12.46L8.23 12.46L8.23 12.46Q8.25 12.25 8.32 12.21L8.32 12.21L8.32 12.21Q8.39 12.17 8.58 12.17L8.58 12.17L8.58 12.17Q8.99 12.17 9.18 12.02L9.18 12.02L9.18 12.02Q9.38 11.87 9.43 11.66L9.43 11.66L9.43 11.66Q9.48 11.44 9.49 11.09L9.49 11.09L9.49 5.53L9.49 5.53Q9.48 5.18 9.43 4.96L9.43 4.96L9.43 4.96Q9.38 4.75 9.18 4.60L9.18 4.60L9.18 4.60Q8.99 4.45 8.58 4.45L8.58 4.45L8.50 4.45L8.50 4.45Q8.36 4.45 8.30 4.40L8.30 4.40L8.30 4.40Q8.25 4.35 8.23 4.16L8.23 4.16L8.23 4.16Q8.23 4.03 8.29 3.94L8.29 3.94L8.29 3.94Q8.36 3.85 8.48 3.85L8.48 3.85L8.48 3.85Q9.39 3.89 10.14 3.89L10.14 3.89L10.14 3.89Q10.98 3.89 11.89 3.85L11.89 3.85L11.89 3.85Q12.01 3.85 12.07 3.94L12.07 3.94L12.07 3.94Q12.14 4.03 12.14 4.16L12.14 4.16L12.14 4.16Q12.12 4.37 12.05 4.41L12.05 4.41L12.05 4.41Q11.98 4.45 11.79 4.45L11.79 4.45L11.79 4.45Q11.38 4.45 11.19 4.60L11.19 4.60L11.19 4.60Q10.99 4.75 10.94 4.96L10.94 4.96L10.94 4.96Q10.89 5.18 10.88 5.53L10.88 5.53L10.88 8.01L15.27 8.01L15.27 5.53L15.27 5.53Q15.26 5.18 15.21 4.96L15.21 4.96L15.21 4.96Q15.16 4.75 14.97 4.60L14.97 4.60L14.97 4.60Q14.77 4.45 14.36 4.45L14.36 4.45L14.28 4.45L14.28 4.45Q14.14 4.45 14.08 4.40L14.08 4.40L14.08 4.40Q14.01 4.35 14 4.16L14 4.16L14 4.16Q14 4.03 14.07 3.94L14.07 3.94L14.07 3.94Q14.14 3.85 14.25 3.85L14.25 3.85L14.25 3.85Q15.16 3.89 16.00 3.89L16.00 3.89L16.00 3.89Q16.77 3.89 17.67 3.85L17.67 3.85L17.67 3.85Q17.79 3.85 17.86 3.94L17.86 3.94L17.86 3.94Q17.92 4.03 17.92 4.16L17.92 4.16L17.92 4.16Q17.91 4.37 17.83 4.41L17.83 4.41L17.83 4.41Q17.75 4.45 17.57 4.45L17.57 4.45L17.57 4.45Q17.16 4.45 16.96 4.60L16.96 4.60L16.96 4.60Q16.76 4.75 16.71 4.96L16.71 4.96L16.71 4.96Q16.66 5.18 16.65 5.53L16.65 5.53L16.65 11.09L16.65 11.09Q16.66 11.44 16.71 11.66L16.71 11.66L16.71 11.66Q16.76 11.87 16.96 12.02L16.96 12.02L16.96 12.02Q17.16 12.17 17.57 12.17L17.57 12.17L17.65 12.17L17.65 12.17Q17.78 12.17 17.84 12.22L17.84 12.22L17.84 12.22Q17.91 12.26 17.92 12.46L17.92 12.46L17.92 12.46Q17.92 12.59 17.86 12.68L17.86 12.68L17.86 12.68Q17.79 12.77 17.67 12.77L17.67 12.77L17.67 12.77Q16.77 12.73 15.99 12.73L15.99 12.73L15.99 12.73Q15.16 12.73 14.25 12.77L14.25 12.77L14.25 12.77Q14.14 12.77 14.07 12.68L14.07 12.68L14.07 12.68Q14 12.59 14 12.46L14 12.46L14 12.46Q14.01 12.25 14.09 12.21L14.09 12.21L14.09 12.21Q14.17 12.17 14.36 12.17L14.36 12.17L14.36 12.17Q14.77 12.17 14.97 12.02L14.97 12.02L14.97 12.02Q15.16 11.87 15.21 11.66L15.21 11.66L15.21 11.66Q15.26 11.44 15.27 11.09L15.27 11.09L15.27 8.61L10.88 8.61L10.88 11.09L10.88 11.09Q10.89 11.44 10.94 11.66L10.94 11.66L10.94 11.66Q10.99 11.87 11.19 12.02L11.19 12.02L11.19 12.02Q11.38 12.17 11.79 12.17L11.79 12.17L11.87 12.17L11.87 12.17Q12.01 12.17 12.07 12.22L12.07 12.22L12.07 12.22Q12.12 12.26 12.14 12.46L12.14 12.46L12.14 12.46Q12.14 12.59 12.07 12.68L12.07 12.68L12.07 12.68Q12.01 12.77 11.89 12.77L11.89 12.77L11.89 12.77Q10.99 12.73 10.15 12.73L10.15 12.73L10.15 12.73Q9.39 12.73 8.48 12.77L8.48 12.77ZM23.63 13.01L23.63 13.01Q22.30 13.01 21.29 12.37L21.29 12.37L21.29 12.37Q20.27 11.73 19.72 10.68L19.72 10.68L19.72 10.68Q19.17 9.63 19.17 8.43L19.17 8.43L19.17 8.43Q19.17 6.96 19.83 5.87L19.83 5.87L19.83 5.87Q20.50 4.77 21.53 4.19L21.53 4.19L21.53 4.19Q22.57 3.61 23.63 3.61L23.63 3.61L23.63 3.61Q24.98 3.61 26.00 4.25L26.00 4.25L26.00 4.25Q27.03 4.89 27.59 5.93L27.59 5.93L27.59 5.93Q28.14 6.97 28.14 8.18L28.14 8.18L28.14 8.18Q28.14 9.65 27.47 10.75L27.47 10.75L27.47 10.75Q26.80 11.84 25.75 12.43L25.75 12.43L25.75 12.43Q24.70 13.01 23.63 13.01L23.63 13.01ZM23.62 12.39L23.62 12.39Q24.57 12.39 25.21 11.82L25.21 11.82L25.21 11.82Q25.84 11.26 26.16 10.30L26.16 10.30L26.16 10.30Q26.47 9.34 26.47 8.18L26.47 8.18L26.47 8.18Q26.47 7.10 26.15 6.20L26.15 6.20L26.15 6.20Q25.83 5.29 25.19 4.75L25.19 4.75L25.19 4.75Q24.54 4.21 23.62 4.21L23.62 4.21L23.62 4.21Q22.22 4.21 21.51 5.40L21.51 5.40L21.51 5.40Q20.80 6.58 20.80 8.39L20.80 8.39L20.80 8.39Q20.80 9.48 21.12 10.39L21.12 10.39L21.12 10.39Q21.43 11.30 22.06 11.84L22.06 11.84L22.06 11.84Q22.69 12.39 23.62 12.39L23.62 12.39ZM29.64 12.77L29.64 12.77Q29.53 12.77 29.46 12.68L29.46 12.68L29.46 12.68Q29.39 12.59 29.39 12.46L29.39 12.46L29.39 12.46Q29.40 12.25 29.48 12.21L29.48 12.21L29.48 12.21Q29.55 12.17 29.75 12.17L29.75 12.17L29.75 12.17Q30.16 12.17 30.35 12.02L30.35 12.02L30.35 12.02Q30.55 11.87 30.60 11.66L30.60 11.66L30.60 11.66Q30.65 11.44 30.66 11.09L30.66 11.09L30.66 5.53L30.66 5.53Q30.65 5.18 30.60 4.96L30.60 4.96L30.60 4.96Q30.55 4.75 30.35 4.60L30.35 4.60L30.35 4.60Q30.16 4.45 29.75 4.45L29.75 4.45L29.67 4.45L29.67 4.45Q29.53 4.45 29.46 4.40L29.46 4.40L29.46 4.40Q29.40 4.35 29.39 4.16L29.39 4.16L29.39 4.16Q29.39 4.03 29.46 3.94L29.46 3.94L29.46 3.94Q29.53 3.85 29.64 3.85L29.64 3.85L29.64 3.85Q30.55 3.89 31.32 3.89L31.32 3.89L33.42 3.89L33.42 3.89Q34.64 3.89 35.78 4.40L35.78 4.40L35.78 4.40Q36.92 4.90 36.92 6.41L36.92 6.41L36.92 6.41Q36.92 7.25 36.41 7.91L36.41 7.91L36.41 7.91Q35.91 8.57 35.11 8.93L35.11 8.93L35.11 8.93Q34.30 9.30 33.43 9.30L33.43 9.30L33.43 9.30Q32.63 9.30 32.03 9.07L32.03 9.07L32.03 11.09L32.03 11.09Q32.05 11.44 32.09 11.66L32.09 11.66L32.09 11.66Q32.14 11.87 32.34 12.02L32.34 12.02L32.34 12.02Q32.54 12.17 32.94 12.17L32.94 12.17L33.03 12.17L33.03 12.17Q33.17 12.17 33.23 12.22L33.23 12.22L33.23 12.22Q33.29 12.26 33.31 12.46L33.31 12.46L33.31 12.46Q33.31 12.59 33.24 12.68L33.24 12.68L33.24 12.68Q33.18 12.77 33.05 12.77L33.05 12.77L33.05 12.77Q32.16 12.73 31.30 12.73L31.30 12.73L31.30 12.73Q30.55 12.73 29.64 12.77L29.64 12.77ZM33.03 8.67L33.03 8.67Q33.53 8.67 34.07 8.46L34.07 8.46L34.07 8.46Q34.61 8.26 34.99 7.76L34.99 7.76L34.99 7.76Q35.36 7.27 35.36 6.45L35.36 6.45L35.36 6.45Q35.36 5.22 34.58 4.82L34.58 4.82L34.58 4.82Q33.80 4.41 32.91 4.41L32.91 4.41L32.91 4.41Q32.55 4.41 32.37 4.49L32.37 4.49L32.37 4.49Q32.19 4.56 32.11 4.79L32.11 4.79L32.11 4.79Q32.03 5.01 32.03 5.49L32.03 5.49L32.03 8.51L32.03 8.51Q32.37 8.67 33.03 8.67L33.03 8.67ZM37.98 12.77L37.98 12.77Q37.87 12.77 37.80 12.68L37.80 12.68L37.80 12.68Q37.73 12.59 37.73 12.46L37.73 12.46L37.73 12.46Q37.74 12.26 37.81 12.22L37.81 12.22L37.81 12.22Q37.87 12.17 38.01 12.17L38.01 12.17L38.01 12.17Q38.30 12.17 38.46 12.12L38.46 12.12L38.46 12.12Q38.61 12.07 38.76 11.89L38.76 11.89L38.76 11.89Q38.91 11.72 39.13 11.33L39.13 11.33L42.27 5.52L42.27 5.52Q42.53 4.97 42.53 4.75L42.53 4.75L42.53 4.75Q42.53 4.55 42.36 4.50L42.36 4.50L42.36 4.50Q42.18 4.45 41.72 4.45L41.72 4.45L40.19 4.45L40.19 4.45Q39.72 4.47 39.47 4.61L39.47 4.61L39.47 4.61Q39.21 4.76 39.06 5.07L39.06 5.07L39.06 5.07Q38.91 5.38 38.70 6.08L38.70 6.08L38.70 6.08Q38.65 6.20 38.53 6.25L38.53 6.25L38.53 6.25Q38.40 6.30 38.23 6.27L38.23 6.27L38.23 6.27Q38.11 6.24 38.02 6.16L38.02 6.16L38.02 6.16Q37.93 6.08 37.94 5.95L37.94 5.95L38.22 4.19L38.22 4.19Q38.26 4.00 38.35 3.95L38.35 3.95L38.35 3.95Q38.43 3.89 38.63 3.89L38.63 3.89L43.43 3.89L43.43 3.89Q44.24 3.89 45.15 3.85L45.15 3.85L45.15 3.85Q45.28 3.85 45.34 3.94L45.34 3.94L45.34 3.94Q45.40 4.03 45.40 4.16L45.40 4.16L45.40 4.16Q45.39 4.35 45.33 4.40L45.33 4.40L45.33 4.40Q45.28 4.44 45.19 4.45L45.19 4.45L45.19 4.45Q45.09 4.45 45.05 4.45L45.05 4.45L45.05 4.45Q44.59 4.48 44.32 4.76L44.32 4.76L44.32 4.76Q44.06 5.04 43.81 5.52L43.81 5.52L40.74 11.33L40.74 11.33Q40.61 11.61 40.61 11.75L40.61 11.75L40.61 11.75Q40.61 12.15 41.37 12.17L41.37 12.17L43.02 12.17L43.02 12.17Q43.51 12.15 43.76 12.01L43.76 12.01L43.76 12.01Q44.02 11.86 44.17 11.55L44.17 11.55L44.17 11.55Q44.32 11.24 44.53 10.54L44.53 10.54L44.53 10.54Q44.60 10.29 45.00 10.35L45.00 10.35L45.00 10.35Q45.12 10.37 45.21 10.46L45.21 10.46L45.21 10.46Q45.30 10.54 45.29 10.67L45.29 10.67L45.01 12.43L45.01 12.43Q44.97 12.61 44.88 12.67L44.88 12.67L44.88 12.67Q44.80 12.73 44.60 12.73L44.60 12.73L39.66 12.73L39.66 12.73Q38.89 12.73 37.98 12.77L37.98 12.77ZM51.07 13.01L51.07 13.01Q49.74 13.01 48.73 12.37L48.73 12.37L48.73 12.37Q47.71 11.73 47.16 10.68L47.16 10.68L47.16 10.68Q46.61 9.63 46.61 8.43L46.61 8.43L46.61 8.43Q46.61 6.96 47.27 5.87L47.27 5.87L47.27 5.87Q47.94 4.77 48.97 4.19L48.97 4.19L48.97 4.19Q50.01 3.61 51.07 3.61L51.07 3.61L51.07 3.61Q52.42 3.61 53.45 4.25L53.45 4.25L53.45 4.25Q54.47 4.89 55.03 5.93L55.03 5.93L55.03 5.93Q55.58 6.97 55.58 8.18L55.58 8.18L55.58 8.18Q55.58 9.65 54.91 10.75L54.91 10.75L54.91 10.75Q54.24 11.84 53.19 12.43L53.19 12.43L53.19 12.43Q52.14 13.01 51.07 13.01L51.07 13.01ZM51.06 12.39L51.06 12.39Q52.01 12.39 52.65 11.82L52.65 11.82L52.65 11.82Q53.28 11.26 53.60 10.30L53.60 10.30L53.60 10.30Q53.91 9.34 53.91 8.18L53.91 8.18L53.91 8.18Q53.91 7.10 53.59 6.20L53.59 6.20L53.59 6.20Q53.27 5.29 52.63 4.75L52.63 4.75L52.63 4.75Q51.98 4.21 51.06 4.21L51.06 4.21L51.06 4.21Q49.66 4.21 48.95 5.40L48.95 5.40L48.95 5.40Q48.24 6.58 48.24 8.39L48.24 8.39L48.24 8.39Q48.24 9.48 48.56 10.39L48.56 10.39L48.56 10.39Q48.87 11.30 49.50 11.84L49.50 11.84L49.50 11.84Q50.13 12.39 51.06 12.39L51.06 12.39Z"></path></g><!----><!----></svg>